<?xml version="1.0" encoding="UTF-8" standalone="no"?>
<!DOCTYPE svg PUBLIC "-//W3C//DTD SVG 1.1//EN"
 "http://www.w3.org/Graphics/SVG/1.1/DTD/svg11.dtd">
<!-- Generated by graphviz version 2.38.0 (20140413.2041)
 -->
<!-- Title: G Pages: 1 -->
<svg width="307pt" height="430pt"
 viewBox="0.00 0.00 307.00 430.00" xmlns="http://www.w3.org/2000/svg" xmlns:xlink="http://www.w3.org/1999/xlink">
<g id="graph0" class="graph" transform="scale(1 1) rotate(0) translate(4 426)">
<title>G</title>
<polygon fill="none" stroke="none" points="-4,4 -4,-426 303,-426 303,4 -4,4"/>
<g id="clust1" class="cluster"><title>cluster_0</title>
<path fill="#e6eaf2" stroke="#e6eaf2" d="M20,-65C20,-65 130,-65 130,-65 136,-65 142,-71 142,-77 142,-77 142,-347 142,-347 142,-353 136,-359 130,-359 130,-359 20,-359 20,-359 14,-359 8,-353 8,-347 8,-347 8,-77 8,-77 8,-71 14,-65 20,-65"/>
<text text-anchor="middle" x="75" y="-343.8" font-family="Times,serif" font-size="14.00">System A</text>
</g>
<g id="clust2" class="cluster"><title>cluster_1</title>
<path fill="none" stroke="blue" stroke-dasharray="5,2" d="M162,-65C162,-65 279,-65 279,-65 285,-65 291,-71 291,-77 291,-77 291,-347 291,-347 291,-353 285,-359 279,-359 279,-359 162,-359 162,-359 156,-359 150,-353 150,-347 150,-347 150,-77 150,-77 150,-71 156,-65 162,-65"/>
<text text-anchor="middle" x="220.5" y="-343.8" font-family="Times,serif" font-size="14.00">System B</text>
</g>
<!-- a0 -->
<g id="node1" class="node"><title>a0</title>
<ellipse fill="white" stroke="white" cx="106" cy="-310" rx="27" ry="18"/>
<text text-anchor="middle" x="106" y="-306.3" font-family="Times,serif" font-size="14.00">a0</text>
</g>
<!-- a1 -->
<g id="node2" class="node"><title>a1</title>
<ellipse fill="white" stroke="white" cx="106" cy="-237" rx="27" ry="18"/>
<text text-anchor="middle" x="106" y="-233.3" font-family="Times,serif" font-size="14.00">a1</text>
</g>
<!-- a0&#45;&gt;a1 -->
<g id="edge1" class="edge"><title>a0&#45;&gt;a1</title>
<path fill="none" stroke="black" d="M106,-291.813C106,-283.789 106,-274.047 106,-265.069"/>
<polygon fill="black" stroke="black" points="109.5,-265.029 106,-255.029 102.5,-265.029 109.5,-265.029"/>
</g>
<!-- a2 -->
<g id="node3" class="node"><title>a2</title>
<ellipse fill="white" stroke="white" cx="43" cy="-164" rx="27" ry="18"/>
<text text-anchor="middle" x="43" y="-160.3" font-family="Times,serif" font-size="14.00">a2</text>
</g>
<!-- a1&#45;&gt;a2 -->
<g id="edge2" class="edge"><title>a1&#45;&gt;a2</title>
<path fill="none" stroke="black" d="M92.6393,-220.943C84.0362,-211.247 72.6946,-198.465 63.0244,-187.567"/>
<polygon fill="black" stroke="black" points="65.5965,-185.193 56.3414,-180.036 60.3606,-189.838 65.5965,-185.193"/>
</g>
<!-- b3 -->
<g id="node8" class="node"><title>b3</title>
<ellipse fill="#e6eaf2" stroke="#e6eaf2" cx="185" cy="-91" rx="27" ry="18"/>
<text text-anchor="middle" x="185" y="-87.3" font-family="Times,serif" font-size="14.00">b3</text>
</g>
<!-- a1&#45;&gt;b3 -->
<g id="edge9" class="edge"><title>a1&#45;&gt;b3</title>
<path fill="none" stroke="black" d="M115.749,-220.063C122.209,-209.379 130.789,-194.948 138,-182 149.94,-160.56 162.793,-135.822 172.035,-117.714"/>
<polygon fill="black" stroke="black" points="175.359,-118.9 176.77,-108.399 169.119,-115.728 175.359,-118.9"/>
</g>
<!-- a3 -->
<g id="node4" class="node"><title>a3</title>
<ellipse fill="white" stroke="white" cx="106" cy="-91" rx="27" ry="18"/>
<text text-anchor="middle" x="106" y="-87.3" font-family="Times,serif" font-size="14.00">a3</text>
</g>
<!-- a2&#45;&gt;a3 -->
<g id="edge3" class="edge"><title>a2&#45;&gt;a3</title>
<path fill="none" stroke="black" d="M56.3607,-147.943C64.9638,-138.247 76.3054,-125.465 85.9756,-114.567"/>
<polygon fill="black" stroke="black" points="88.6394,-116.838 92.6586,-107.036 83.4035,-112.193 88.6394,-116.838"/>
</g>
<!-- a3&#45;&gt;a1 -->
<g id="edge4" class="edge"><title>a3&#45;&gt;a1</title>
<path fill="none" stroke="red" d="M106,-109.062C106,-133.624 106,-179.211 106,-208.546"/>
<polygon fill="red" stroke="red" points="102.5,-208.916 106,-218.916 109.5,-208.916 102.5,-208.916"/>
<text text-anchor="middle" x="120" y="-160.3" font-family="Times,serif" font-size="14.00" fill="red"> &#45;10</text>
</g>
<!-- end -->
<g id="node9" class="node"><title>end</title>
<polygon fill="none" stroke="black" points="179,-36 129,-36 125,-32 125,-0 175,-0 179,-4 179,-36"/>
<polyline fill="none" stroke="black" points="175,-32 125,-32 "/>
<polyline fill="none" stroke="black" points="175,-32 175,-0 "/>
<polyline fill="none" stroke="black" points="175,-32 179,-36 "/>
<text text-anchor="middle" x="152" y="-14.3" font-family="Times,serif" font-size="14.00">store</text>
</g>
<!-- a3&#45;&gt;end -->
<g id="edge10" class="edge"><title>a3&#45;&gt;end</title>
<path fill="none" stroke="black" d="M116.209,-74.2428C121.802,-65.6099 128.875,-54.693 135.253,-44.8479"/>
<polygon fill="black" stroke="black" points="138.354,-46.4998 140.854,-36.2041 132.479,-42.6935 138.354,-46.4998"/>
</g>
<!-- b0 -->
<g id="node5" class="node"><title>b0</title>
<ellipse fill="#e6eaf2" stroke="#e6eaf2" cx="185" cy="-310" rx="27" ry="18"/>
<text text-anchor="middle" x="185" y="-306.3" font-family="Times,serif" font-size="14.00">b0</text>
</g>
<!-- b1 -->
<g id="node6" class="node"><title>b1</title>
<ellipse fill="#e6eaf2" stroke="#e6eaf2" cx="185" cy="-237" rx="27" ry="18"/>
<text text-anchor="middle" x="185" y="-233.3" font-family="Times,serif" font-size="14.00">b1</text>
</g>
<!-- b0&#45;&gt;b1 -->
<g id="edge5" class="edge"><title>b0&#45;&gt;b1</title>
<path fill="none" stroke="black" d="M185,-291.813C185,-283.789 185,-274.047 185,-265.069"/>
<polygon fill="black" stroke="black" points="188.5,-265.029 185,-255.029 181.5,-265.029 188.5,-265.029"/>
</g>
<!-- b2 -->
<g id="node7" class="node"><title>b2</title>
<ellipse fill="#e6eaf2" stroke="#e6eaf2" cx="217" cy="-164" rx="27" ry="18"/>
<text text-anchor="middle" x="217" y="-160.3" font-family="Times,serif" font-size="14.00">b2</text>
</g>
<!-- b0&#45;&gt;b2 -->
<g id="edge6" class="edge"><title>b0&#45;&gt;b2</title>
<path fill="none" stroke="green" d="M198.388,-294.196C206.677,-283.99 216.559,-269.666 221,-255 227.214,-234.478 225.625,-210.125 222.809,-191.93"/>
<polygon fill="green" stroke="green" points="226.242,-191.245 221.058,-182.004 219.348,-192.46 226.242,-191.245"/>
<text text-anchor="middle" x="242.5" y="-233.3" font-family="Times,serif" font-size="14.00" fill="green"> +12</text>
</g>
<!-- b1&#45;&gt;b2 -->
<g id="edge7" class="edge"><title>b1&#45;&gt;b2</title>
<path fill="none" stroke="black" d="M192.422,-219.533C196.299,-210.93 201.131,-200.21 205.481,-190.557"/>
<polygon fill="black" stroke="black" points="208.7,-191.933 209.618,-181.378 202.318,-189.057 208.7,-191.933"/>
</g>
<!-- b2&#45;&gt;b3 -->
<g id="edge8" class="edge"><title>b2&#45;&gt;b3</title>
<path fill="none" stroke="black" d="M209.578,-146.533C205.701,-137.93 200.869,-127.21 196.519,-117.557"/>
<polygon fill="black" stroke="black" points="199.682,-116.057 192.382,-108.378 193.3,-118.933 199.682,-116.057"/>
</g>
<!-- b3&#45;&gt;end -->
<g id="edge11" class="edge"><title>b3&#45;&gt;end</title>
<path fill="none" stroke="black" d="M177.346,-73.5327C173.502,-65.2629 168.749,-55.0367 164.402,-45.6824"/>
<polygon fill="black" stroke="black" points="167.462,-43.9617 160.073,-36.3686 161.114,-46.9121 167.462,-43.9617"/>
</g>
<!-- start -->
<g id="node10" class="node"><title>start</title>
<polygon fill="none" stroke="black" points="179,-422 176,-426 155,-426 152,-422 125,-422 125,-386 179,-386 179,-422"/>
<text text-anchor="middle" x="152" y="-400.3" font-family="Times,serif" font-size="14.00">load</text>
</g>
<!-- start&#45;&gt;a0 -->
<g id="edge12" class="edge"><title>start&#45;&gt;a0</title>
<path fill="none" stroke="black" d="M143.348,-385.696C136.408,-371.816 126.566,-352.133 118.728,-336.456"/>
<polygon fill="black" stroke="black" points="121.753,-334.679 114.15,-327.3 115.492,-337.81 121.753,-334.679"/>
</g>
<!-- start&#45;&gt;b0 -->
<g id="edge13" class="edge"><title>start&#45;&gt;b0</title>
<path fill="none" stroke="black" d="M158.207,-385.696C163.108,-372.032 170.026,-352.745 175.605,-337.192"/>
<polygon fill="black" stroke="black" points="178.961,-338.202 179.043,-327.607 172.372,-335.838 178.961,-338.202"/>
</g>
</g>
</svg>
